<?xml version="1.0" encoding="utf-8"?>
<!-- Generator: Adobe Illustrator 18.1.0, SVG Export Plug-In . SVG Version: 6.00 Build 0)  -->
<!DOCTYPE svg PUBLIC "-//W3C//DTD SVG 1.1//EN" "http://www.w3.org/Graphics/SVG/1.1/DTD/svg11.dtd">
<svg version="1.1" id="Layer_1" xmlns="http://www.w3.org/2000/svg" xmlns:xlink="http://www.w3.org/1999/xlink" x="0px" y="0px"
	 viewBox="90 0 2635.4 612" enable-background="new 90 0 2635.4 612" xml:space="preserve">
<path fill="#FFFFFF" d="M441.9,0L90,153v306l351.9,153L702,459V153L441.9,0z M235.3,248.3l-1.2,0.2l1.2,7.5v39.6h-0.5l0.5,7.7v47.3
	l-0.6,7.6h0.6v39.6l-1.4,7.5l1.4,0.3v39.5l-2.3,7.3l2.3,0.8V476l-114.7-49.9v-166l114.7-33.8V248.3z M380.7,539.5l-130-56.6v-24.8
	l130,40.7V539.5z M380.7,482.9l-130-40.7v-33.4l130,24.9V482.9z M380.7,418.1l-130-24.9v-33.7l130,9.2V418.1z M380.7,353.3l-130-9.2
	v-33.8l130-6.6V353.3z M380.7,288.4l-130,6.6v-33.8l130-22.5V288.4z M380.7,223.2l-130,22.5v-23.9l130-38.2V223.2z M380.7,153
	l-260.1,76.5v-43.9L380.7,72.5V153z M671.4,441.6L472.5,558.5V53.5l198.9,117V441.6z"/>
<g>
	<path fill="#FFFFFF" d="M802,189.6h17.2v49.8h0.9c3-8.8,7.3-16.5,12.9-23.3c5.6-6.8,12.1-12.6,19.5-17.4
		c7.4-4.8,15.5-8.5,24.2-10.9c8.8-2.4,17.7-3.6,26.7-3.6c13.6,0,25.1,1.7,34.7,5c9.5,3.3,17.3,7.7,23.3,13.1
		c6,5.4,10.8,11.6,14.3,18.3c3.5,6.8,6,13.7,7.5,20.6c1.5,7,2.4,13.7,2.7,20.2c0.3,6.5,0.5,12.2,0.5,17v144.1h-17.2V275.2
		c0-5.7-0.5-13-1.4-21.7c-0.9-8.8-3.6-17.1-7.9-25.1c-4.4-8-11-14.9-19.9-20.6c-8.9-5.7-21.2-8.6-36.9-8.6
		c-13.3,0-25.1,2.4-35.3,7.2c-10.3,4.8-19,11.6-26.3,20.2c-7.2,8.6-12.8,18.9-16.5,30.8c-3.8,11.9-5.7,25-5.7,39.2v125.9H802V189.6z
		"/>
	<path fill="#FFFFFF" d="M1043.4,308.3v2.7c0,13.6,1.8,26.6,5.5,39c3.6,12.4,9,23.3,16.1,32.6c7.1,9.4,16,16.8,26.8,22.2
		c10.7,5.4,23.2,8.2,37.5,8.2c23.3,0,41.8-6.1,55.4-18.3c13.6-12.2,23-29.2,28.2-51h17.2c-5.1,27.2-16.2,48-33.3,62.5
		c-17.1,14.5-39.6,21.7-67.7,21.7c-17.2,0-32.2-3.1-45.1-9.3c-12.8-6.2-23.6-14.6-32.2-25.4c-8.6-10.7-15-23.4-19.3-38
		c-4.2-14.6-6.3-30.4-6.3-47.3c0-16.3,2.2-31.9,6.6-46.9c4.4-14.9,10.9-28.1,19.7-39.4c8.8-11.3,19.7-20.4,32.8-27.2
		c13.1-6.8,28.6-10.2,46.4-10.2c16.3,0,30.7,3,43.3,9.1c12.5,6,23,14.3,31.5,24.7c8.5,10.4,14.9,22.5,19.3,36.2
		c4.4,13.7,6.6,28.5,6.6,44.2c0,1.5-0.1,3.2-0.2,5.2c-0.2,2-0.2,3.6-0.2,4.8H1043.4z M1214.7,293.3c-0.6-12.7-2.7-24.7-6.4-36
		c-3.6-11.3-9-21.3-16.1-29.9c-7.1-8.6-15.8-15.5-25.9-20.6c-10.1-5.1-21.7-7.7-34.7-7.7c-13.9,0-26.2,2.6-36.8,7.9
		c-10.6,5.3-19.5,12.2-26.8,20.8c-7.3,8.6-12.9,18.7-16.8,30.1c-3.9,11.5-6.4,23.3-7.3,35.3H1214.7z"/>
	<path fill="#FFFFFF" d="M1330.2,402.5h0.9l63.4-212.9h23.1l63.9,212.9h0.9l65.2-212.9h19l-74.7,232.8h-21.3l-63.9-211.1h-0.9
		l-64.3,211.1h-21.7l-73.8-232.8h18.6L1330.2,402.5z"/>
	<path fill="#FFFFFF" d="M1599.3,345c0.6,10.9,3,20.5,7.2,28.8c4.2,8.3,9.7,15.4,16.5,21.3c6.8,5.9,14.7,10.3,23.8,13.4
		c9.1,3,18.9,4.5,29.4,4.5c7.5,0,15.6-0.7,24.2-2c8.6-1.4,16.6-3.8,24-7.5c7.4-3.6,13.5-8.7,18.3-15.2c4.8-6.5,7.2-14.7,7.2-24.7
		c0-13-3.9-22.8-11.8-29.4c-7.9-6.6-17.7-11.8-29.7-15.4c-11.9-3.6-24.8-6.6-38.5-8.8c-13.7-2.3-26.6-5.7-38.5-10.2
		c-11.9-4.5-21.8-10.9-29.7-19.3c-7.9-8.3-11.8-20.5-11.8-36.5c0-11.5,2.6-21.1,7.7-28.8c5.1-7.7,11.7-13.8,19.7-18.3
		c8-4.5,17-7.8,27-9.7c10-2,19.9-2.9,29.9-2.9c12.1,0,23.4,1.4,34,4.1c10.6,2.7,19.7,7.1,27.4,13.1s13.7,13.7,18.1,23.1
		c4.4,9.4,6.6,20.7,6.6,34h-17.2c0-10.6-1.7-19.6-5.2-27.2c-3.5-7.5-8.3-13.7-14.5-18.3c-6.2-4.7-13.5-8.2-22-10.4
		c-8.5-2.3-17.5-3.4-27.2-3.4c-7.9,0-15.8,0.8-23.8,2.3c-8,1.5-15.2,4.1-21.5,7.7c-6.3,3.6-11.6,8.3-15.6,14
		c-4.1,5.7-6.1,12.7-6.1,20.8c0,9.4,2.3,16.9,6.8,22.6c4.5,5.7,10.5,10.3,17.9,13.8c7.4,3.5,15.7,6.3,24.9,8.4
		c9.2,2.1,18.5,4.2,27.9,6.3c11.5,2.1,22.3,4.6,32.4,7.5c10.1,2.9,18.9,6.8,26.3,11.8c7.4,5,13.2,11.4,17.4,19.3
		c4.2,7.9,6.3,17.8,6.3,29.9c0,12.7-2.9,23.1-8.6,31.3c-5.7,8.2-13,14.7-21.7,19.7c-8.8,5-18.5,8.5-29.2,10.4
		c-10.7,2-21.2,2.9-31.5,2.9c-13.3,0-25.6-1.7-36.9-5.2c-11.3-3.5-21.2-8.8-29.7-15.9c-8.5-7.1-15.1-15.8-19.9-26
		c-4.8-10.3-7.4-22.2-7.7-35.8H1599.3z"/>
	<path fill="#FFFFFF" d="M1826.2,241.2h1.4c2.1-7.5,6-14.6,11.6-21.3c5.6-6.6,12.4-12.4,20.4-17.2c8-4.8,16.9-8.5,26.7-11.1
		c9.8-2.6,20-3.7,30.6-3.4v17.2c-9.1-1.2-19.4-0.3-31,2.7c-11.6,3-22.7,9.7-33.3,19.9c-4.2,4.5-7.9,8.9-11.1,13.1
		c-3.2,4.2-5.8,8.9-7.9,14c-2.1,5.1-3.8,10.9-5,17.2c-1.2,6.3-2,13.9-2.3,22.7v127.3H1809V189.6h17.2V241.2z"/>
	<path fill="#FFFFFF" d="M1918.6,306c0-16.6,2.3-32.2,7-46.9c4.7-14.6,11.6-27.6,20.6-38.7c9.1-11.2,20.2-20,33.5-26.5
		c13.3-6.5,28.5-9.7,45.7-9.7c17.2,0,32.5,3.2,45.8,9.7c13.3,6.5,24.5,15.3,33.5,26.5c9.1,11.2,15.9,24.1,20.6,38.7
		c4.7,14.7,7,30.3,7,46.9c0,16.6-2.3,32.3-7,47.1c-4.7,14.8-11.6,27.7-20.6,38.7c-9.1,11-20.2,19.8-33.5,26.3
		c-13.3,6.5-28.5,9.7-45.8,9.7c-17.2,0-32.5-3.2-45.7-9.7c-13.3-6.5-24.5-15.2-33.5-26.3c-9.1-11-15.9-23.9-20.6-38.7
		C1921,338.3,1918.6,322.6,1918.6,306z M1935.9,306c0,13.9,2,27.3,5.9,40.1c3.9,12.8,9.7,24.2,17.2,34.2c7.5,10,16.9,17.9,28.1,23.8
		c11.2,5.9,24,8.8,38.5,8.8c14.5,0,27.3-2.9,38.5-8.8c11.2-5.9,20.5-13.8,28.1-23.8c7.5-10,13.3-21.4,17.2-34.2
		c3.9-12.8,5.9-26.2,5.9-40.1c0-13.9-2-27.3-5.9-40.1c-3.9-12.8-9.7-24.2-17.2-34.2c-7.6-10-16.9-17.9-28.1-23.8
		c-11.2-5.9-24-8.8-38.5-8.8c-14.5,0-27.3,2.9-38.5,8.8c-11.2,5.9-20.5,13.8-28.1,23.8c-7.6,10-13.3,21.4-17.2,34.2
		C1937.8,278.7,1935.9,292.1,1935.9,306z"/>
	<path fill="#FFFFFF" d="M2161.9,306c0-16.6,2.3-32.2,7-46.9c4.7-14.6,11.6-27.6,20.6-38.7c9.1-11.2,20.2-20,33.5-26.5
		c13.3-6.5,28.5-9.7,45.7-9.7c17.2,0,32.5,3.2,45.8,9.7c13.3,6.5,24.5,15.3,33.5,26.5c9.1,11.2,15.9,24.1,20.6,38.7
		c4.7,14.7,7,30.3,7,46.9c0,16.6-2.3,32.3-7,47.1c-4.7,14.8-11.6,27.7-20.6,38.7c-9.1,11-20.2,19.8-33.5,26.3
		c-13.3,6.5-28.5,9.7-45.8,9.7c-17.2,0-32.5-3.2-45.7-9.7c-13.3-6.5-24.5-15.2-33.5-26.3c-9.1-11-15.9-23.9-20.6-38.7
		C2164.2,338.3,2161.9,322.6,2161.9,306z M2179.1,306c0,13.9,2,27.3,5.9,40.1c3.9,12.8,9.7,24.2,17.2,34.2
		c7.5,10,16.9,17.9,28.1,23.8c11.2,5.9,24,8.8,38.5,8.8c14.5,0,27.3-2.9,38.5-8.8c11.2-5.9,20.5-13.8,28.1-23.8
		c7.5-10,13.3-21.4,17.2-34.2c3.9-12.8,5.9-26.2,5.9-40.1c0-13.9-2-27.3-5.9-40.1c-3.9-12.8-9.7-24.2-17.2-34.2
		c-7.6-10-16.9-17.9-28.1-23.8c-11.2-5.9-24-8.8-38.5-8.8c-14.5,0-27.3,2.9-38.5,8.8c-11.2,5.9-20.5,13.8-28.1,23.8
		c-7.6,10-13.3,21.4-17.2,34.2C2181.1,278.7,2179.1,292.1,2179.1,306z"/>
	<path fill="#FFFFFF" d="M2416.5,189.6h17.2v47.6h0.9c1.8-7.2,5-14.1,9.5-20.6c4.5-6.5,10-12.2,16.5-17c6.5-4.8,13.7-8.6,21.7-11.3
		c8-2.7,16.4-4.1,25.1-4.1c11.2,0,20.8,1.4,29,4.3c8.2,2.9,15.1,6.6,20.8,11.3c5.7,4.7,10.3,10,13.6,15.9c3.3,5.9,5.6,11.9,6.8,17.9
		h0.9c6.9-16.3,16.2-28.6,27.9-36.9c11.6-8.3,27-12.5,46-12.5c10.6,0,20.3,1.6,29.2,4.8c8.9,3.2,16.6,8,23.1,14.5
		c6.5,6.5,11.6,14.7,15.2,24.7c3.6,10,5.4,21.7,5.4,35.3v159h-17.2V263c0-14.8-2.3-26.4-6.8-34.9c-4.5-8.5-9.9-14.9-16.1-19.3
		c-6.2-4.4-12.4-7.1-18.6-8.2c-6.2-1.1-10.9-1.6-14.3-1.6c-10.6,0-20.3,1.8-29.2,5.4c-8.9,3.6-16.6,9.1-23.1,16.3
		c-6.5,7.2-11.6,16.2-15.2,27c-3.6,10.7-5.4,23-5.4,36.9v137.7h-17.2V263c0-14.5-2.2-26-6.6-34.7c-4.4-8.6-9.5-15-15.4-19.3
		c-5.9-4.2-11.9-6.9-18.1-8.2c-6.2-1.2-11.1-1.8-14.7-1.8c-8.2,0-16.6,1.7-25.4,5c-8.8,3.3-16.8,8.5-24,15.4
		c-7.2,6.9-13.1,15.9-17.7,26.7c-4.5,10.9-6.8,23.7-6.8,38.5v137.7h-17.2V189.6z"/>
</g>
</svg>
