<?xml version="1.0" encoding="utf-8"?>
<!-- Generator: Adobe Illustrator 18.1.0, SVG Export Plug-In . SVG Version: 6.00 Build 0)  -->
<!DOCTYPE svg PUBLIC "-//W3C//DTD SVG 1.1//EN" "http://www.w3.org/Graphics/SVG/1.1/DTD/svg11.dtd">
<svg version="1.1" id="Layer_1" xmlns="http://www.w3.org/2000/svg" xmlns:xlink="http://www.w3.org/1999/xlink" x="0px" y="0px"
	 viewBox="0 0 40 34" enable-background="new 0 0 40 34" xml:space="preserve">
<g>
	<path fill="#00FFBC" d="M38,2.4L38,2.4l0,25.9L20,32L2,28.4V2.4L19.6,6L20,6L20.4,6L38,2.4 M38,0.4c-0.1,0-0.3,0-0.4,0L20,4
		L2.4,0.5c-0.1,0-0.3,0-0.4,0c-1.1,0-2,0.9-2,2v25.9c0,1,0.7,1.8,1.6,2L20,34l18.4-3.7c0.9-0.2,1.6-1,1.6-2V2.4
		C40,1.3,39.1,0.4,38,0.4L38,0.4z"/>
</g>
<line fill="none" stroke="#00FFBC" stroke-width="2" stroke-miterlimit="10" x1="20" y1="20" x2="20" y2="33.9"/>
<line fill="none" stroke="#00FFBC" stroke-width="2" stroke-miterlimit="10" x1="20" y1="4" x2="20" y2="16"/>
<polyline fill="none" stroke="#00FFBC" stroke-width="2" stroke-miterlimit="10" points="16,24 20,20 24,24 "/>
<polyline fill="none" stroke="#00FFBC" stroke-width="2" stroke-miterlimit="10" points="24,12 20,16 16,12 "/>
</svg>
