<?xml version="1.0" encoding="utf-8"?>
<!-- Generator: Adobe Illustrator 18.1.0, SVG Export Plug-In . SVG Version: 6.00 Build 0)  -->
<!DOCTYPE svg PUBLIC "-//W3C//DTD SVG 1.1//EN" "http://www.w3.org/Graphics/SVG/1.1/DTD/svg11.dtd">
<svg version="1.1" id="Layer_1" xmlns="http://www.w3.org/2000/svg" xmlns:xlink="http://www.w3.org/1999/xlink" x="0px" y="0px"
	 viewBox="0 0 120 120" enable-background="new 0 0 120 120" xml:space="preserve">
<circle opacity="0.5" cx="60" cy="60" r="60"/>
<g>
	<g>
		<path fill="#00FFBC" d="M78.6,73.1c-0.2,0.1-0.4,0.1-0.6,0.1v2.6l-18,3.6l-18-3.6v-2.6c-0.2,0-0.4,0-0.6-0.1L40,72.7v3.2
			c0,1,0.7,1.8,1.6,2L60,81.5l18.4-3.7c0.9-0.2,1.6-1,1.6-2v-3.2L78.6,73.1z"/>
		<path fill="#00FFBC" d="M40.6,64.9l1.4,0.5V49.9l17.6,3.5l0.4,0.1l0.4-0.1L78,49.9h0v15.4l1.4-0.5c0.2-0.1,0.4-0.1,0.6-0.1V49.9
			c0-1.1-0.9-2-2-2c-0.1,0-0.3,0-0.4,0L60,51.5L42.4,48c-0.1,0-0.3,0-0.4,0c-1.1,0-2,0.9-2,2v14.8C40.2,64.8,40.4,64.8,40.6,64.9z"
			/>
	</g>
	<g>
		<rect x="59" y="52.5" fill="#00FFBC" width="2" height="27"/>
	</g>
	<g>
		<path fill="#00FFBC" d="M69.2,51.4l-1.8-0.8c0.4-1,0.6-2,0.6-3.1c0-4.4-3.6-8-8-8s-8,3.6-8,8c0,1.1,0.2,2.1,0.6,3.1l-1.8,0.8
			c-0.5-1.2-0.8-2.5-0.8-3.9c0-5.5,4.5-10,10-10c5.5,0,10,4.5,10,10C70,48.8,69.7,50.2,69.2,51.4z"/>
	</g>
</g>
<g>
	<path fill="#00FFBC" d="M42,74.2c-0.3,0-0.6-0.1-1-0.2l-2-0.7C37.8,73,37,71.9,37,70.6v-3.8c0-1.7,1.3-3,3-3c0.3,0,0.6,0.1,1,0.2
		l2,0.7c1.2,0.4,2.1,1.6,2.1,2.8v3.8C45,72.9,43.7,74.2,42,74.2z M40,65.8c-0.5,0-1,0.4-1,1v3.8c0,0.4,0.3,0.8,0.7,0.9l2,0.7
		c0.6,0.2,1.3-0.2,1.3-0.9v-3.8c0-0.4-0.3-0.8-0.7-0.9l-2-0.7C40.2,65.8,40.1,65.8,40,65.8z"/>
</g>
<g>
	<path fill="#00FFBC" d="M78,74.2L78,74.2c-1.7,0-3-1.3-3-3v-3.8c0-1.3,0.8-2.4,2.1-2.8l2-0.7c0.3-0.1,0.6-0.2,1-0.2
		c1.7,0,3,1.3,3,3v3.8c0,1.3-0.8,2.4-2.1,2.8l-2,0.7C78.6,74.2,78.3,74.2,78,74.2z M80,65.8c-0.1,0-0.2,0-0.3,0.1l-2,0.7
		C77.3,66.6,77,67,77,67.4v3.8c0,0.6,0.5,1,1,1l0,0c0.1,0,0.2,0,0.3-0.1l2-0.7c0.4-0.1,0.7-0.5,0.7-0.9v-3.8
		C81,66.2,80.5,65.8,80,65.8z"/>
</g>
</svg>
