<?xml version="1.0" encoding="utf-8"?>
<!-- Generator: Adobe Illustrator 18.1.0, SVG Export Plug-In . SVG Version: 6.00 Build 0)  -->
<!DOCTYPE svg PUBLIC "-//W3C//DTD SVG 1.1//EN" "http://www.w3.org/Graphics/SVG/1.1/DTD/svg11.dtd">
<svg version="1.1" id="Layer_1" xmlns="http://www.w3.org/2000/svg" xmlns:xlink="http://www.w3.org/1999/xlink" x="0px" y="0px"
	 viewBox="0 0 120 120" enable-background="new 0 0 120 120" xml:space="preserve">
<circle opacity="0.5" cx="60" cy="60" r="60"/>
<path fill="#00FFBC" d="M82.1,70.5c-2.2-0.3-4.3-1.1-6.1-2.2c4.4-3,7-7.5,7-12.3c0-8.6-8.1-15.7-18.1-15.7c-10,0-18.1,7-18.1,15.7
	c0,0,0,0.1,0,0.1c0,0,0,0,0,0c-5.6,1.3-9.8,5.8-9.8,11.1c0,3.4,1.7,6.6,4.7,8.8c-1.2,0.7-2.5,1.1-3.9,1.3c-0.5,0.1-0.8,0.5-0.9,0.9
	c0,0.5,0.3,0.9,0.8,1c1.1,0.3,2.3,0.4,3.5,0.4c2.1,0,4.1-0.5,5.9-1.3c1,0.2,2.1,0.3,3.1,0.3c5.5,0,10.3-3,12.2-7.1
	c0.8,0.1,1.6,0.2,2.4,0.2c1.4,0,2.9-0.2,4.4-0.5c2.5,1.2,5.3,1.9,8.2,1.9c0,0,0,0,0,0c1.6,0,3.2-0.2,4.8-0.6c0.5-0.1,0.8-0.5,0.8-1
	S82.6,70.6,82.1,70.5z M50.2,76.7c-1,0-2-0.1-3-0.4c-0.2-0.1-0.5,0-0.7,0.1c-1.1,0.6-2.2,0.9-3.5,1.1c0.4-0.2,0.8-0.5,1.1-0.8
	c0.3-0.2,0.4-0.5,0.4-0.9c0-0.3-0.2-0.6-0.5-0.8c-3.2-1.8-5.1-4.7-5.1-7.9c0-5.2,5-9.5,11.2-9.5s11.2,4.3,11.2,9.5
	S56.4,76.7,50.2,76.7z M69.9,69.3c-0.1-0.1-0.3-0.1-0.5-0.1c-0.1,0-0.2,0-0.2,0c-1.4,0.3-2.9,0.5-4.3,0.5c-0.6,0-1.2,0-1.7-0.1
	c0,0,0,0,0,0c0.2-0.8,0.3-1.6,0.3-2.4c0-6.3-5.9-11.5-13.2-11.5c-0.5,0-1,0-1.4,0.1c0.1-7.4,7.3-13.4,16.1-13.4
	C73.8,42.3,81,48.5,81,56c0,4.6-2.7,8.9-7.3,11.4c-0.3,0.2-0.5,0.5-0.5,0.8s0.1,0.7,0.4,0.9c1,0.8,2.1,1.5,3.3,2
	C74.4,71,71.9,70.4,69.9,69.3z"/>
</svg>
